<svg width="37" height="35" viewBox="0 0 37 35" fill="none" xmlns="http://www.w3.org/2000/svg">
<path d="M18.2215 21C28.2847 21 36.4431 24.6563 36.4431 29.1667V35H0V29.1667C0 24.6563 8.15839 21 18.2215 21ZM34.0136 29.1667C34.0136 25.9467 26.9436 23.3333 18.2215 23.3333C9.4995 23.3333 2.42954 25.9467 2.42954 29.1667V32.6667H34.0136V29.1667ZM18.2215 0C20.4768 0 22.6397 0.860415 24.2344 2.39196C25.829 3.92351 26.7249 6.00073 26.7249 8.16667C26.7249 10.3326 25.829 12.4098 24.2344 13.9414C22.6397 15.4729 20.4768 16.3333 18.2215 16.3333C15.9663 16.3333 13.8034 15.4729 12.2087 13.9414C10.614 12.4098 9.71816 10.3326 9.71816 8.16667C9.71816 6.00073 10.614 3.92351 12.2087 2.39196C13.8034 0.860415 15.9663 0 18.2215 0ZM18.2215 2.33333C16.6107 2.33333 15.0658 2.94791 13.9267 4.04188C12.7876 5.13584 12.1477 6.61957 12.1477 8.16667C12.1477 9.71376 12.7876 11.1975 13.9267 12.2915C15.0658 13.3854 16.6107 14 18.2215 14C19.8324 14 21.3773 13.3854 22.5164 12.2915C23.6555 11.1975 24.2954 9.71376 24.2954 8.16667C24.2954 6.61957 23.6555 5.13584 22.5164 4.04188C21.3773 2.94791 19.8324 2.33333 18.2215 2.33333V2.33333Z" fill="white"/>
</svg>
