<svg width="37" height="35" viewBox="0 0 37 35" fill="none" xmlns="http://www.w3.org/2000/svg">
<path d="M6.43116 5.25H11.7905C11.7905 3.85761 12.468 2.52226 13.6741 1.53769C14.8802 0.553124 16.516 0 18.2216 0C19.9273 0 21.563 0.553124 22.7691 1.53769C23.9752 2.52226 24.6528 3.85761 24.6528 5.25H30.0121C31.7177 5.25 33.3535 5.80312 34.5596 6.78769C35.7657 7.77226 36.4432 9.10761 36.4432 10.5V29.75C36.4432 31.1424 35.7657 32.4777 34.5596 33.4623C33.3535 34.4469 31.7177 35 30.0121 35H6.43116C4.72551 35 3.08972 34.4469 1.88364 33.4623C0.677566 32.4777 0 31.1424 0 29.75V10.5C0 9.10761 0.677566 7.77226 1.88364 6.78769C3.08972 5.80312 4.72551 5.25 6.43116 5.25V5.25ZM6.43116 7C5.29406 7 4.20353 7.36875 3.39948 8.02513C2.59543 8.6815 2.14372 9.57174 2.14372 10.5V29.75C2.14372 30.6783 2.59543 31.5685 3.39948 32.2249C4.20353 32.8813 5.29406 33.25 6.43116 33.25H30.0121C31.1492 33.25 32.2397 32.8813 33.0437 32.2249C33.8478 31.5685 34.2995 30.6783 34.2995 29.75V10.5C34.2995 9.57174 33.8478 8.6815 33.0437 8.02513C32.2397 7.36875 31.1492 7 30.0121 7H27.8683V12.25H8.57487V7H6.43116ZM10.7186 10.5H25.7246V7H10.7186V10.5ZM18.2216 1.75C17.0845 1.75 15.994 2.11875 15.1899 2.77513C14.3859 3.4315 13.9342 4.32174 13.9342 5.25H22.509C22.509 4.32174 22.0573 3.4315 21.2533 2.77513C20.4492 2.11875 19.3587 1.75 18.2216 1.75Z" fill="white"/>
</svg>
